<svg width="50" height="50" viewBox="0 0 50 50" fill="none" xmlns="http://www.w3.org/2000/svg">
<path d="M45.4376 21.3542C45.3126 21.2708 44.2709 20.4583 42.0209 20.4583C41.4376 20.4583 40.8542 20.5208 40.2709 20.625C39.8334 17.7083 37.3959 16.2292 37.2917 16.1667L36.6876 15.8125L36.3126 16.375C35.8126 17.125 35.4167 17.9792 35.2501 18.8542C34.8334 20.5208 35.0834 22.1042 35.9376 23.4583C34.9167 24.0417 33.2501 24.1875 32.8959 24.1875H5.45841C4.75008 24.1875 4.16675 24.7708 4.16675 25.5C4.16675 27.8958 4.54175 30.2917 5.37508 32.5417C6.31258 35.0208 7.72925 36.8542 9.54175 37.9792C11.5834 39.2292 14.9376 39.9375 18.7501 39.9375C20.3959 39.9375 22.1042 39.7917 23.7917 39.4792C26.1251 39.0625 28.3751 38.25 30.4376 37.0625C32.1457 36.0857 33.6746 34.8246 34.9584 33.3333C37.1459 30.8958 38.4376 28.125 39.3751 25.7292H39.7709C42.1459 25.7292 43.6251 24.7708 44.4376 23.9583C44.9792 23.4583 45.3751 22.8542 45.6667 22.1458L45.8334 21.6458L45.4376 21.3542ZM8.02091 23.4167H11.6876C11.8542 23.4167 12.0209 23.2708 12.0209 23.0833V19.7917C12.0209 19.625 11.8751 19.4583 11.6876 19.4583H8.02091C7.83341 19.4583 7.68758 19.6042 7.68758 19.7917V23.0833C7.70841 23.2708 7.83341 23.4167 8.02091 23.4167ZM13.0834 23.4167H16.7501C16.9167 23.4167 17.0834 23.2708 17.0834 23.0833V19.7917C17.0834 19.625 16.9376 19.4583 16.7501 19.4583H13.0834C12.8959 19.4583 12.7501 19.6042 12.7501 19.7917V23.0833C12.7709 23.2708 12.8959 23.4167 13.0834 23.4167ZM18.2292 23.4167H21.8751C22.0834 23.4167 22.2292 23.2708 22.2292 23.0833V19.7917C22.2292 19.625 22.1042 19.4583 21.8751 19.4583H18.2292C18.0626 19.4583 17.9167 19.6042 17.9167 19.7917V23.0833C17.9167 23.2708 18.0417 23.4167 18.2292 23.4167ZM23.3126 23.4167H27.0001C27.1667 23.4167 27.3126 23.2708 27.3126 23.0833V19.7917C27.3126 19.625 27.1876 19.4583 27.0001 19.4583H23.3126C23.1459 19.4583 23.0001 19.6042 23.0001 19.7917V23.0833C23.0001 23.2708 23.1459 23.4167 23.3126 23.4167ZM13.0834 18.75H16.7501C16.9167 18.75 17.0834 18.5625 17.0834 18.375V15.1042C17.0834 14.9167 16.9376 14.7708 16.7501 14.7708H13.0834C12.8959 14.7708 12.7501 14.8958 12.7501 15.1042V18.375C12.7709 18.5625 12.8959 18.75 13.0834 18.75ZM18.2292 18.75H21.8751C22.0834 18.75 22.2292 18.5625 22.2292 18.375V15.1042C22.2292 14.9167 22.1042 14.7708 21.8751 14.7708H18.2292C18.0626 14.7708 17.9167 14.8958 17.9167 15.1042V18.375C17.9167 18.5625 18.0417 18.75 18.2292 18.75ZM23.3126 18.75H27.0001C27.1667 18.75 27.3126 18.5625 27.3126 18.375V15.1042C27.3126 14.9167 27.1667 14.7708 27.0001 14.7708H23.3126C23.1459 14.7708 23.0001 14.8958 23.0001 15.1042V18.375C23.0001 18.5625 23.1459 18.75 23.3126 18.75ZM23.3126 14H27.0001C27.1667 14 27.3126 13.8542 27.3126 13.6667V10.4167C27.3126 10.2083 27.1667 10.0625 27.0001 10.0625H23.3126C23.1459 10.0625 23.0001 10.1875 23.0001 10.4167V13.6667C23.0001 13.8333 23.1459 14 23.3126 14ZM28.4376 23.4167H32.1042C32.2917 23.4167 32.4376 23.2708 32.4376 23.0833V19.7917C32.4376 19.625 32.2917 19.4583 32.1042 19.4583H28.4376C28.2709 19.4583 28.1251 19.6042 28.1251 19.7917V23.0833C28.1251 23.2708 28.2709 23.4167 28.4376 23.4167Z" fill="white"/>
</svg>
