<svg width="50" height="50" viewBox="0 0 50 50" fill="none" xmlns="http://www.w3.org/2000/svg">
<path d="M5.41675 22.0625L17.4584 9.99999L20.9792 13.5417C20.4792 15.3125 21.2917 17.25 22.9167 18.1875V29.7292C21.6667 30.4375 20.8334 31.7917 20.8334 33.3333C20.8334 34.4384 21.2724 35.4982 22.0538 36.2796C22.8352 37.061 23.895 37.5 25.0001 37.5C26.1052 37.5 27.165 37.061 27.9464 36.2796C28.7278 35.4982 29.1667 34.4384 29.1667 33.3333C29.1667 31.7917 28.3334 30.4375 27.0834 29.7292V19.6042L31.3959 23.9583C31.2501 24.2708 31.2501 24.625 31.2501 25C31.2501 26.1051 31.6891 27.1649 32.4705 27.9463C33.2519 28.7277 34.3117 29.1667 35.4167 29.1667C36.5218 29.1667 37.5816 28.7277 38.363 27.9463C39.1444 27.1649 39.5834 26.1051 39.5834 25C39.5834 23.8949 39.1444 22.8351 38.363 22.0537C37.5816 21.2723 36.5218 20.8333 35.4167 20.8333C35.0417 20.8333 34.6876 20.8333 34.3751 20.9792L29.0209 15.625C29.2796 14.6601 29.1793 13.634 28.7387 12.7375C28.2981 11.8409 27.547 11.1347 26.6251 10.75C25.7292 10.4167 24.7917 10.3333 23.9584 10.5625L20.4167 7.04166L22.0626 5.41666C23.6876 3.77082 26.3126 3.77082 27.9376 5.41666L44.5834 22.0625C46.2292 23.6875 46.2292 26.3125 44.5834 27.9375L27.9376 44.5833C26.3126 46.2292 23.6876 46.2292 22.0626 44.5833L5.41675 27.9375C3.77091 26.3125 3.77091 23.6875 5.41675 22.0625Z" fill="white"/>
</svg>
