<svg width="50" height="50" viewBox="0 0 50 50" fill="none" xmlns="http://www.w3.org/2000/svg">
<g clip-path="url(#clip0_257_422)">
<path d="M0 0V50H50V0H0ZM7.75625 6.47656H18.1734V10.3016H15.275V23.3813H18.1734V27.1984H7.75625V23.3813H10.7672V10.3016H7.75625V6.47656ZM30.7859 6.47656H35.4172V20.0188C35.4172 21.2984 35.3031 22.3391 34.9531 23.2672C34.6298 24.1399 34.1157 24.9294 33.4484 25.5781C32.8687 26.1578 32.0656 26.7422 31.1359 26.9703C30.1783 27.3532 29.1564 27.5499 28.125 27.55C26.5063 27.55 25.1141 27.2 24.0734 26.6203C23.0655 26.0483 22.1646 25.3055 21.4109 24.425L24.3094 21.1859C24.8859 21.8781 25.4656 22.3422 26.0422 22.6922C26.6187 23.0344 27.3109 23.2688 28.0109 23.2688C28.825 23.2688 29.5094 23.0328 30.0938 22.4547C30.55 21.8781 30.7859 21.0625 30.7859 19.7938V6.47656ZM4.63125 40.625H23.3813V43.75H4.63125V40.625Z" fill="white"/>
</g>
<defs>
<clipPath id="clip0_257_422">
<rect width="50" height="50" fill="white"/>
</clipPath>
</defs>
</svg>
