<svg width="50" height="50" viewBox="0 0 50 50" fill="none" xmlns="http://www.w3.org/2000/svg">
<path d="M34.3749 12.6667C34.3749 12.6667 20.1249 16.2292 26.9583 24.0833C28.9791 26.3958 26.4374 28.4792 26.4374 28.4792C26.4374 28.4792 31.5416 25.875 29.1666 22.5417C26.9583 19.4792 25.2916 17.9583 34.3749 12.6667ZM25.0624 15.1667C33.4999 8.50001 29.1666 4.16667 29.1666 4.16667C30.9166 11.0417 22.9999 13.125 20.1458 17.4167C18.1874 20.3333 21.1041 23.4792 24.9999 27.0833C23.5208 23.5417 18.2916 20.5 25.0624 15.1667ZM19.5208 36.3958C13.1041 38.1875 23.4374 41.875 31.5833 38.3958C30.7916 38.0833 30.0208 37.7083 29.2916 37.2708C26.4583 37.9167 23.5416 38.0417 20.6666 37.6458C17.9374 37.3125 19.5208 36.3958 19.5208 36.3958ZM30.6041 32.8958C26.9583 33.6875 23.1874 33.875 19.4791 33.4375C16.7499 33.1667 18.5416 31.8333 18.5416 31.8333C11.4583 34.1875 22.4583 36.8333 32.2916 33.9583C31.6874 33.7292 31.1041 33.3333 30.6041 32.8958ZM37.7291 39.7708C37.7291 39.7708 38.9166 40.75 36.4583 41.5C31.7083 42.9167 16.8124 43.3542 12.6874 41.5625C11.2083 40.9167 13.9999 40.0208 14.8749 39.8333C15.3541 39.7083 15.8333 39.6667 16.3124 39.6667C14.6666 38.5417 5.62494 41.9583 11.7499 42.9167C28.3541 45.625 42.0416 41.6667 37.7291 39.7708ZM32.0208 29.6458C32.6249 29.25 33.2708 28.9167 33.9374 28.625C33.9374 28.625 30.7916 29.1667 27.6458 29.4583C24.3124 29.7917 20.9583 29.8333 17.6249 29.5833C12.7291 28.9375 20.3124 27.0833 20.3124 27.0833C18.0208 27.0833 15.7708 27.625 13.7291 28.6458C9.45827 30.7292 24.3541 31.6667 32.0208 29.6458ZM33.8958 34.6875C33.8541 34.7708 33.8124 34.8333 33.7291 34.8958C44.1666 32.1667 40.3333 25.2292 35.3333 26.9583C35.0624 27.0833 34.8333 27.25 34.6874 27.4792C34.9791 27.375 35.2708 27.2917 35.5833 27.2292C38.0833 26.7292 41.6666 30.625 33.8958 34.6875ZM34.1666 44.2917C27.8958 45.375 21.4791 45.4583 15.1666 44.5833C15.1666 44.5833 16.1249 45.375 21.0208 45.6875C28.5208 46.1667 40.0416 45.4167 40.3124 41.875C40.3749 41.8958 39.8333 43.2292 34.1666 44.2917Z" fill="white"/>
</svg>
