<svg width="51" height="50" viewBox="0 0 51 50" fill="none" xmlns="http://www.w3.org/2000/svg">
<path d="M2.0625 1.5625V48.4375H48.9375V1.5625H2.0625ZM27.5719 38.1219C27.5719 42.6844 24.8969 44.7594 20.9937 44.7594C17.4719 44.7594 15.4266 42.9344 14.3875 40.7344L17.975 38.5625C18.6672 39.775 19.2969 40.8125 20.8062 40.8125C22.2531 40.8125 23.1656 40.2609 23.1656 38.0469V23.0781H27.5719V38.1219ZM37.9875 44.7594C33.8969 44.7594 31.2531 42.8094 29.9641 40.2594L33.55 38.1859C34.4938 39.7141 35.7219 40.8578 37.8937 40.8578C39.7172 40.8578 40.8672 39.9453 40.8672 38.6766C40.8672 37.1672 39.6703 36.6297 37.6578 35.7625L36.5641 35.2781C33.3859 33.9266 31.2781 32.2266 31.2781 28.6375C31.2781 25.3359 33.7844 22.8172 37.7281 22.8172C40.5281 22.8172 42.5406 23.7938 43.9906 26.3391L40.5687 28.5344C39.8187 27.1906 38.9969 26.6437 37.7375 26.6437C36.45 26.6437 35.625 27.4594 35.625 28.5344C35.625 29.8656 36.4375 30.3906 38.3281 31.2062L39.4266 31.6906C43.1719 33.2844 45.2812 34.925 45.2812 38.6125C45.2922 42.5875 42.1781 44.7531 37.9922 44.7531L37.9875 44.7594Z" fill="white"/>
</svg>
