<svg width="24" height="24" viewBox="0 0 24 24" fill="none" xmlns="http://www.w3.org/2000/svg">
<path d="M4 5.99948C4 5.73426 4.10536 5.47991 4.29289 5.29237C4.48043 5.10484 4.73478 4.99948 5 4.99948H19C19.2652 4.99948 19.5196 5.10484 19.7071 5.29237C19.8946 5.47991 20 5.73426 20 5.99948C20 6.2647 19.8946 6.51905 19.7071 6.70659C19.5196 6.89412 19.2652 6.99948 19 6.99948H5C4.73478 6.99948 4.48043 6.89412 4.29289 6.70659C4.10536 6.51905 4 6.2647 4 5.99948ZM4 17.9995C4 17.7343 4.10536 17.4799 4.29289 17.2924C4.48043 17.1048 4.73478 16.9995 5 16.9995H19C19.2652 16.9995 19.5196 17.1048 19.7071 17.2924C19.8946 17.4799 20 17.7343 20 17.9995C20 18.2647 19.8946 18.5191 19.7071 18.7066C19.5196 18.8941 19.2652 18.9995 19 18.9995H5C4.73478 18.9995 4.48043 18.8941 4.29289 18.7066C4.10536 18.5191 4 18.2647 4 17.9995ZM5 10.9995C4.73478 10.9995 4.48043 11.1048 4.29289 11.2924C4.10536 11.4799 4 11.7343 4 11.9995C4 12.2647 4.10536 12.5191 4.29289 12.7066C4.48043 12.8941 4.73478 12.9995 5 12.9995H13C13.2652 12.9995 13.5196 12.8941 13.7071 12.7066C13.8946 12.5191 14 12.2647 14 11.9995C14 11.7343 13.8946 11.4799 13.7071 11.2924C13.5196 11.1048 13.2652 10.9995 13 10.9995H5Z" fill="white"/>
</svg>
