<svg width="51" height="50" viewBox="0 0 51 50" fill="none" xmlns="http://www.w3.org/2000/svg">
<g clip-path="url(#clip0_257_443)">
<path d="M0.519922 28.7477L13.7106 28.7475C13.8148 29.7696 14.094 30.7663 14.536 31.6938L3.22852 38.5057C1.74512 35.9476 0.80918 32.6937 0.519922 28.7477ZM13.3912 47.9667L18.4114 35.7752C17.8945 35.4998 17.4058 35.1741 16.9526 34.803L7.62939 44.1265C9.53271 45.841 11.4929 47.1255 13.3912 47.9667ZM6.98457 43.509L16.2896 34.2037C15.8079 33.7191 15.3637 33.1441 14.955 32.4834L3.675 39.2786C4.69951 40.9455 5.83789 42.3887 6.98457 43.509ZM37.6483 44.1269L28.3192 34.7983C28.2174 34.8808 28.1137 34.9611 28.0083 35.0391L34.8159 46.3399C35.7661 45.7485 36.7095 44.9899 37.6483 44.127V44.1269ZM34.0604 46.8155L27.267 35.5383C24.7314 36.9543 22.0602 37.2524 19.2195 36.1571L14.2097 48.3234C21.0651 51.1034 28.1707 50.3071 34.0604 46.8155ZM17.2688 20.6709L10.4614 9.37012C9.46885 10.0071 8.52598 10.7477 7.62881 11.583L16.9576 20.9118C17.0602 20.83 17.1639 20.7497 17.2688 20.6709ZM0.5 27.8551L13.6603 27.8549C13.6888 25.527 14.5109 23.3938 16.29 21.5066L6.98467 12.2013C2.68906 16.7532 0.55 21.9781 0.5 27.8551ZM22.6381 18.8768L22.6387 5.71681C18.2707 5.74356 14.4351 6.92052 11.2168 8.89444L18.0101 20.1718C19.2871 19.4221 20.8093 18.9042 22.638 18.8769L22.6381 18.8768ZM40.8416 15.252L31.1298 24.9641C31.3489 25.6118 31.4948 26.282 31.5646 26.9621H44.757C44.6708 22.9602 43.3504 19.0579 40.8416 15.252ZM44.7752 27.8547H31.6163C31.5706 30.3195 30.6495 32.566 28.987 34.2037L38.2927 43.509C42.572 39.2978 44.6522 34.0414 44.7752 27.8547ZM23.5312 5.73634L23.5307 18.9284C24.2223 19.0067 24.8864 19.1571 25.5293 19.3635L35.2378 9.65499C31.8069 7.25509 27.7632 5.9087 23.5312 5.73634ZM42.585 0.253622C38.7603 1.37247 37.1618 5.64259 38.7977 8.913L25.3836 22.3272C22.2188 20.7493 18.0689 22.1738 16.8099 25.8461C15.2751 30.3227 19.1773 34.8111 23.8171 33.906C27.9196 33.1056 29.902 28.6142 28.1595 25.1159L41.5861 11.6895C44.9709 13.3717 49.353 11.5855 50.3162 7.62169C51.4324 3.02823 47.1269 -1.07499 42.585 0.253622Z" fill="white"/>
</g>
<defs>
<clipPath id="clip0_257_443">
<rect width="50" height="50" fill="white" transform="translate(0.5)"/>
</clipPath>
</defs>
</svg>
