<svg width="50" height="50" viewBox="0 0 50 50" fill="none" xmlns="http://www.w3.org/2000/svg">
<path d="M35.0104 2.08333C33.1765 2.09679 31.3526 2.35604 29.5875 2.85416L29.4625 2.89166C28.3506 2.70125 27.2258 2.59609 26.0979 2.57708C23.7792 2.53749 21.7854 3.08333 20.1813 3.99375C18.5979 3.46041 15.3146 2.54166 11.8542 2.72499C9.44376 2.85208 6.8146 3.56249 4.86668 5.55833C2.92293 7.55416 1.89585 10.6417 2.11251 14.8437C2.17085 16.0042 2.51043 17.8937 3.0771 20.3437C3.6396 22.7917 4.43543 25.6562 5.42501 28.2708C6.4146 30.8875 7.50001 33.2375 9.19585 34.8333C10.0417 35.6333 11.2063 36.3062 12.5792 36.25C13.5438 36.2125 14.4167 35.8021 15.1688 35.1958C15.5354 35.6646 15.9271 35.8687 16.2833 36.0583C16.7313 36.2958 17.1688 36.4583 17.6208 36.5667C18.8729 36.8871 20.1767 36.9516 21.4542 36.7562C22.0104 36.6667 22.5958 36.4917 23.1792 36.2417C23.2 36.8708 23.225 37.4875 23.2521 38.1125C23.3313 40.0917 23.3833 41.9187 23.9958 43.5208C24.0938 43.7833 24.3625 45.1312 25.4271 46.3208C26.4896 47.5125 28.5729 48.2542 30.9438 47.7625C32.6167 47.4146 34.7458 46.7875 36.1583 44.8375C37.5542 42.9083 38.1854 40.1396 38.3104 35.6521C38.3417 35.4104 38.3792 35.2042 38.4188 35.0104L38.7521 35.0396H38.7896C40.575 35.1187 42.5125 34.8729 44.1313 34.1437C45.5646 33.4979 46.6479 32.8479 47.4375 31.6917C47.6354 31.4062 47.8521 31.0604 47.9104 30.4625C47.9688 29.8687 47.6188 28.9354 47.0333 28.5062C45.8604 27.6437 45.125 27.9708 44.3354 28.1312C43.5583 28.2979 42.7667 28.3896 41.9688 28.4083C44.2458 24.6917 45.8771 20.7417 46.8083 17.2458C47.3583 15.1833 47.6688 13.2812 47.6938 11.6187C47.7188 9.95625 47.5792 8.48333 46.5521 7.20833C43.3417 3.22916 38.8271 2.12916 35.3354 2.09166C35.2271 2.08958 35.1188 2.08749 35.0104 2.08958V2.08333ZM34.9188 3.30625C38.2208 3.275 42.4417 4.17499 45.4708 7.93125C46.1521 8.775 46.3542 10.0083 46.3313 11.5292C46.3063 13.0479 46.0167 14.8646 45.4875 16.8562C44.4604 20.7146 42.5188 25.2104 39.7833 29.2479C39.8807 29.3148 39.9856 29.3701 40.0958 29.4125C40.6667 29.6417 41.9667 29.8375 44.5646 29.3208C45.2167 29.1854 45.6958 29.0958 46.1917 29.4625C46.3106 29.5608 46.405 29.6853 46.4676 29.8263C46.5301 29.9673 46.559 30.1209 46.5521 30.275C46.525 30.5078 46.4366 30.7293 46.2958 30.9167C45.7958 31.6479 44.8042 32.3417 43.5333 32.9125C42.4104 33.4208 40.7979 33.6854 39.3688 33.7021C38.6521 33.7083 37.9917 33.6542 37.4313 33.4854L37.3938 33.4729C37.1771 35.4958 36.6792 39.4937 36.3563 41.3167C36.0958 42.7875 35.6417 43.9562 34.7729 44.8312C33.9063 45.7062 32.6813 46.2333 31.0313 46.5771C28.9875 47.0021 27.4979 46.5438 26.5375 45.7583C25.5792 44.9771 25.1396 43.9375 24.875 43.3C24.6938 42.8625 24.6 42.2938 24.5083 41.5333C24.4077 40.6229 24.3403 39.7091 24.3063 38.7937C24.2462 37.1882 24.2267 35.5815 24.2479 33.975C23.3938 34.7333 22.3313 35.2375 21.1917 35.4271C19.8375 35.65 18.625 35.4312 17.9021 35.2562C17.5476 35.1691 17.2049 35.0397 16.8813 34.8708C16.5438 34.6979 16.225 34.5021 16.0125 34.1146C15.8873 33.8934 15.8473 33.6341 15.9 33.3854C15.9681 33.1328 16.1193 32.9104 16.3292 32.7542C16.7208 32.4458 17.2354 32.275 18.0125 32.1167C19.4292 31.8354 19.9229 31.6417 20.2229 31.4104C20.4792 31.2125 20.7688 30.8125 21.2813 30.2229C21.2788 30.1973 21.2767 30.1716 21.275 30.1458C20.3611 30.121 19.4651 29.8865 18.6563 29.4604C18.3625 29.7625 16.8542 31.3104 15.0146 33.4562C14.2417 34.3542 13.3875 34.8687 12.4854 34.9062C11.5833 34.9437 10.7688 34.5021 10.0771 33.8521C8.69168 32.5479 7.58751 30.3042 6.62501 27.7687C5.66668 25.2312 4.88335 22.4062 4.32918 20C3.77085 17.5937 3.44168 15.6542 3.39585 14.7187C3.18751 10.7417 4.14585 8.0625 5.79168 6.37291C7.43751 4.68333 9.69168 4.04375 11.8917 3.92083C15.8375 3.69999 19.5854 5.03541 20.3438 5.32291C21.8042 4.36041 23.6854 3.76041 26.0375 3.79791C27.1524 3.81316 28.262 3.95291 29.3458 4.21458L29.3854 4.19791C29.8625 4.03541 30.3479 3.89791 30.8396 3.78958C32.178 3.48688 33.5446 3.32627 34.9167 3.31041V3.30625H34.9188ZM35.2167 4.58541H34.9313C33.8041 4.60062 32.6809 4.7234 31.5771 4.95208C33.7683 5.90626 35.6934 7.38089 37.1854 9.24791C38.0889 10.3651 38.8387 11.5983 39.4146 12.9146C39.6313 13.4187 39.7771 13.8458 39.8583 14.175C39.9 14.3417 39.9292 14.4812 39.9375 14.6271C39.9455 14.7194 39.9378 14.8124 39.9146 14.9021L39.9021 14.9271C39.9625 16.6 39.5354 17.7333 39.4833 19.3292C39.4438 20.4875 39.7479 21.8479 39.8229 23.3292C39.8938 24.725 39.7208 26.2562 38.7875 27.7604C38.8667 27.8521 38.9375 27.9437 39.0125 28.0354C41.4813 24.2646 43.2625 20.0896 44.2104 16.5333C44.7167 14.6167 44.9875 12.8812 45.0104 11.5062C45.0313 10.1312 44.7667 9.13333 44.4292 8.71875C41.7875 5.44166 38.2146 4.60625 35.2167 4.58333V4.58541ZM25.7896 5.075C23.4625 5.07916 21.7917 5.7625 20.5271 6.78333C19.2208 7.83958 18.3458 9.28333 17.7708 10.7646C17.2142 12.2448 16.8739 13.7976 16.7604 15.375L16.7875 15.3604C17.4896 14.9771 18.4125 14.5958 19.4 14.375C20.3896 14.1542 21.4542 14.0854 22.4188 14.4479C23.3833 14.8125 24.1813 15.6646 24.4708 16.9604C25.8563 23.1812 24.0396 25.4937 23.3688 27.2375C23.1149 27.8698 22.8972 28.5159 22.7167 29.1729C22.8021 29.1521 22.8875 29.1312 22.9708 29.1229C23.3368 29.1031 23.702 29.1747 24.0333 29.3312C24.7083 29.6021 25.1708 30.1687 25.4208 30.8187C25.4854 30.9896 25.5333 31.1729 25.5604 31.3604C25.5896 31.4396 25.6021 31.5208 25.6 31.6042C25.5252 33.9829 25.5336 36.3635 25.625 38.7417C25.6708 39.7708 25.7375 40.675 25.8229 41.3896C25.9063 42.1021 26.0271 42.6437 26.1042 42.8271C26.3542 43.4396 26.7229 44.2396 27.3896 44.7833C28.0563 45.325 29.0083 45.6875 30.7521 45.325C32.2646 45.0104 33.1979 44.575 33.8229 43.9437C34.4438 43.3167 34.8167 42.4437 35.0542 41.1042C35.4104 39.0979 36.1271 33.2833 36.2125 32.1875C36.175 31.3646 36.3 30.7292 36.5708 30.2458C36.8521 29.75 37.2854 29.4458 37.6583 29.2812C37.8458 29.1979 38.0208 29.1437 38.1646 29.1042C38.012 28.8918 37.8522 28.6847 37.6854 28.4833C37.1483 27.8519 36.7068 27.1451 36.375 26.3854C36.2166 26.0722 36.0477 25.7644 35.8688 25.4625C35.6083 25.0042 35.2771 24.4312 34.9313 23.7875C34.2375 22.4979 33.4833 20.9354 33.0917 19.4125C32.7021 17.8937 32.6438 16.3208 33.6438 15.2104C34.5313 14.225 36.0854 13.8167 38.4208 14.0458C38.3521 13.8458 38.3104 13.6792 38.1938 13.4125C37.6639 12.2035 36.9752 11.0706 36.1458 10.0437C34.1667 7.58958 30.9646 5.15625 26.0146 5.07708H25.7896V5.075ZM12.7146 5.17291C12.4646 5.17291 12.2146 5.18125 11.9646 5.19375C9.9771 5.30416 8.09793 5.86458 6.75418 7.24791C5.40626 8.62916 4.52085 10.8958 4.71251 14.65C4.7521 15.3583 5.07085 17.35 5.61668 19.7125C6.16251 22.0792 6.93751 24.8604 7.86668 27.3167C8.79585 29.775 9.92501 31.9146 10.9958 32.9271C11.5354 33.4333 12.0042 33.6375 12.4292 33.6208C12.8563 33.6 13.3688 33.3625 13.9979 32.6312C15.1438 31.2904 16.3319 29.9863 17.5604 28.7208C16.6928 27.9925 16.0246 27.0555 15.6188 25.9979C15.2182 24.9497 15.0962 23.8156 15.2646 22.7062C15.4667 21.2937 15.4938 19.9729 15.4708 18.9312C15.4458 17.9146 15.3708 17.2396 15.3708 16.8167V16.7583C15.369 14.5566 15.7635 12.3724 16.5354 10.3104C17.0854 8.88958 17.9063 7.44583 19.1375 6.27708C17.9292 5.89166 15.7833 5.30416 13.4604 5.19375C13.2106 5.18072 12.9606 5.17377 12.7104 5.17291H12.7146ZM37.1188 15.2604C35.7833 15.2771 35.0333 15.6125 34.6396 16.05C34.0813 16.6708 34.0292 17.7583 34.375 19.1C34.7188 20.4417 35.4313 21.9437 36.1021 23.1896C36.4354 23.8146 36.7604 24.3771 37.0229 24.8312C37.2875 25.2896 37.4813 25.6146 37.5979 25.8937C37.7063 26.1479 37.8271 26.3729 37.9479 26.5833C38.4646 25.5229 38.5583 24.4833 38.5042 23.3979C38.4354 22.0562 38.1146 20.6833 38.1625 19.2937C38.2146 17.6687 38.5458 16.6083 38.575 15.3521C38.092 15.2914 37.6056 15.2608 37.1188 15.2604ZM20.9104 15.4792C20.5024 15.483 20.0959 15.5304 19.6979 15.6208C18.9069 15.8071 18.1435 16.0956 17.4271 16.4792C17.1875 16.6042 16.9563 16.75 16.7396 16.9146L16.6979 16.9521C16.7104 17.2312 16.7667 17.9083 16.7917 18.9021C16.8125 19.9917 16.7875 21.3812 16.5708 22.8812C16.1 26.1479 18.5417 28.8521 21.4125 28.8562C21.5792 28.1854 21.8563 27.5062 22.1313 26.7896C22.9313 24.7 24.5042 23.1771 23.1792 17.2292C22.9625 16.2562 22.5333 15.8625 21.9417 15.6396C21.61 15.5259 21.2609 15.4716 20.9104 15.4792ZM36.4938 15.8687H36.5938C36.7229 15.8729 36.8438 15.8875 36.9479 15.9104C37.0438 15.9295 37.1355 15.9655 37.2188 16.0167C37.2565 16.0393 37.289 16.0695 37.3145 16.1054C37.34 16.1412 37.3577 16.1819 37.3667 16.225V16.2417C37.37 16.333 37.3453 16.4231 37.2958 16.5C37.2374 16.6048 37.1644 16.7009 37.0792 16.7854C36.8777 17.0001 36.6113 17.1429 36.3208 17.1917C36.0363 17.2254 35.7493 17.1551 35.5125 16.9937C35.4167 16.9315 35.3304 16.8557 35.2563 16.7687C35.1926 16.7016 35.1493 16.6178 35.1313 16.5271C35.1269 16.4825 35.132 16.4376 35.1464 16.3952C35.1608 16.3528 35.184 16.3139 35.2146 16.2812C35.28 16.21 35.3585 16.152 35.4458 16.1104C35.775 15.9565 36.1326 15.8727 36.4958 15.8646V15.8687H36.4938ZM21.1021 16.1896C21.2063 16.1896 21.3167 16.2 21.4292 16.2146C21.7292 16.2562 21.9979 16.3333 22.2021 16.4479C22.3021 16.5 22.3896 16.5667 22.4646 16.65C22.5035 16.6944 22.5333 16.7461 22.5521 16.8021C22.5708 16.8577 22.5772 16.9167 22.5708 16.975C22.5514 17.0853 22.5 17.1875 22.4229 17.2687C22.3421 17.3656 22.2474 17.4499 22.1417 17.5187C21.883 17.6951 21.5691 17.7714 21.2583 17.7333C20.9428 17.6833 20.6527 17.5302 20.4333 17.2979C20.3409 17.2055 20.2624 17.1003 20.2 16.9854C20.1351 16.8855 20.1065 16.7664 20.1188 16.6479C20.1479 16.4396 20.325 16.3354 20.4938 16.2729C20.6892 16.2129 20.8937 16.1875 21.0979 16.1979L21.1021 16.1896ZM38.9354 30.2146H38.9292C38.6396 30.3187 38.4021 30.3604 38.2 30.4437C37.999 30.5189 37.8323 30.6648 37.7313 30.8542C37.6063 31.0729 37.5021 31.4625 37.5333 32.125C37.6229 32.1845 37.7214 32.2295 37.825 32.2583C38.1604 32.3583 38.725 32.425 39.3563 32.4146C40.6104 32.4 42.1563 32.1167 42.9771 31.7458C43.65 31.4417 44.275 31.0458 44.8333 30.5708C42.0896 31.1208 40.5417 30.975 39.5896 30.5937C39.3541 30.4993 39.1337 30.3708 38.9354 30.2125V30.2146ZM23.1271 30.3937H23.0854C22.9813 30.4021 22.8292 30.4354 22.5375 30.7521C21.85 31.4979 21.6125 31.9646 21.0458 32.4021C20.4833 32.8396 19.7479 33.0708 18.2813 33.3625C17.8167 33.4542 17.5521 33.5562 17.3729 33.6375C17.4313 33.6833 17.425 33.6958 17.5104 33.7396C17.725 33.8542 18.0021 33.9542 18.2229 34.0104C18.8542 34.1625 19.8896 34.3417 20.9708 34.1625C22.05 33.9833 23.175 33.4812 24.1333 32.1771C24.3 31.9521 24.3167 31.6187 24.1813 31.2604C24.0417 30.9062 23.7417 30.5979 23.5292 30.5104C23.402 30.4518 23.2663 30.4138 23.1271 30.3979V30.3937Z" fill="white"/>
</svg>
