<svg width="50" height="50" viewBox="0 0 50 50" fill="none" xmlns="http://www.w3.org/2000/svg">
<g clip-path="url(#clip0_257_406)">
<path d="M49.3604 22.3042L39.5062 5.25208C38.652 3.77291 36.5541 2.55624 34.8395 2.55624H15.152C13.4437 2.55624 11.3375 3.77291 10.4854 5.25208L0.637451 22.3042C-0.216715 23.7833 -0.216715 26.2062 0.637451 27.6875L10.4812 44.7479C11.3354 46.2271 13.4333 47.4437 15.1479 47.4437H34.8458C36.5541 47.4437 38.6499 46.2271 39.5124 44.7479L49.3583 27.6854C50.2124 26.2062 50.2124 23.7833 49.3583 22.3042H49.3604ZM22.8666 11.9896C22.8666 10.8708 23.7791 9.95833 24.8958 9.95833C26.0124 9.95833 26.927 10.8708 26.927 11.9896V24.1167C26.894 24.6324 26.6658 25.1161 26.2889 25.4696C25.912 25.8231 25.4146 26.0199 24.8979 26.0199C24.3811 26.0199 23.8837 25.8231 23.5068 25.4696C23.1299 25.1161 22.9018 24.6324 22.8687 24.1167L22.8666 11.9896ZM24.8958 37.8854C21.246 37.8805 17.7472 36.4281 15.1668 33.8469C12.5864 31.2657 11.1351 27.7665 11.1312 24.1167C11.1361 21.9699 11.6408 19.8538 12.6052 17.9359C13.5695 16.018 14.9672 14.3509 16.6875 13.0667C16.878 12.9247 17.0946 12.8218 17.325 12.7638C17.5554 12.7059 17.7949 12.694 18.0299 12.7288C18.2649 12.7636 18.4907 12.8446 18.6944 12.9669C18.898 13.0892 19.0755 13.2506 19.2166 13.4417C19.3584 13.6319 19.4614 13.8481 19.5195 14.0782C19.5776 14.3082 19.5898 14.5474 19.5554 14.7821C19.5209 15.0168 19.4405 15.2425 19.3187 15.4461C19.197 15.6497 19.0363 15.8273 18.8458 15.9687C16.7587 17.6016 15.3923 19.9853 15.0381 22.6114C14.6838 25.2375 15.3697 27.8981 16.9495 30.0255C18.5293 32.153 20.8778 33.579 23.4942 33.9992C26.1105 34.4195 28.7875 33.8007 30.9541 32.275C32.2265 31.3293 33.2599 30.0989 33.9715 28.6822C34.683 27.2656 35.0531 25.702 35.052 24.1167C35.0479 22.5254 34.6715 20.9572 33.9531 19.5374C33.2347 18.1176 32.1941 16.8855 30.9145 15.9396C30.5295 15.6541 30.2731 15.2277 30.2017 14.7537C30.1302 14.2797 30.2495 13.7967 30.5333 13.4104C30.8188 13.0253 31.2451 12.769 31.7191 12.6976C32.1931 12.6261 32.6761 12.7453 33.0625 13.0292C34.7963 14.312 36.2057 15.983 37.1777 17.9083C38.1498 19.8337 38.6576 21.9598 38.6604 24.1167C38.6576 27.767 37.2063 31.267 34.6252 33.8481C32.044 36.4293 28.544 37.8806 24.8937 37.8833L24.8958 37.8854Z" fill="white"/>
</g>
<defs>
<clipPath id="clip0_257_406">
<rect width="50" height="50" fill="white"/>
</clipPath>
</defs>
</svg>
