<svg width="51" height="50" viewBox="0 0 51 50" fill="none" xmlns="http://www.w3.org/2000/svg">
<path d="M42.5938 34.15C37.4501 41.0021 26.4668 38.6896 19.423 39.0208C19.423 39.0208 18.1751 39.0917 16.9209 39.2979C16.9209 39.2979 17.3959 39.0958 18.0022 38.8854C22.948 37.175 25.2855 36.8312 28.2918 35.2875C33.9376 32.3958 39.5584 26.0938 40.7022 19.5479C38.5522 25.8438 32.0147 31.2625 26.0626 33.4625C21.9897 34.9667 14.6209 36.4292 14.6188 36.4292C14.5187 36.3779 14.4194 36.3251 14.3209 36.2708C9.3105 33.8333 9.16467 22.9792 18.2668 19.4812C22.2584 17.9479 26.073 18.7896 30.3876 17.7625C34.9876 16.6687 40.3168 13.2208 42.4813 8.7125C44.9084 15.9167 47.8251 27.1833 42.5938 34.15ZM42.6813 6.48333C42.0994 7.87864 41.3547 9.2003 40.4626 10.4208C38.5234 8.42218 36.2025 6.83337 33.6376 5.74866C31.0728 4.66395 28.3161 4.10543 25.5313 4.10625C14.0251 4.10625 4.66675 13.4646 4.66675 24.9687C4.66541 27.8384 5.25793 30.6773 6.40704 33.3068C7.55616 35.9363 9.237 38.2996 11.3438 40.2479L11.8022 40.6521C11.4681 40.3175 11.2806 39.8639 11.2809 39.391C11.2812 38.9182 11.4692 38.4648 11.8037 38.1306C12.1382 37.7964 12.5917 37.6087 13.0646 37.6088C13.5374 37.6089 13.9909 37.7968 14.3252 38.1311C14.6596 38.4655 14.8475 38.9189 14.8475 39.3918C14.8476 39.8646 14.66 40.3181 14.3257 40.6526C13.9915 40.9871 13.5382 41.1752 13.0653 41.1755C12.5925 41.1757 12.1389 40.9882 11.8043 40.6542L12.1147 40.9292C15.8655 44.1003 20.6196 45.8381 25.5313 45.8333C36.5272 45.8333 45.5584 37.275 46.3313 26.475C46.9022 21.1854 45.3397 14.4687 42.6813 6.48333Z" fill="white"/>
</svg>
