<svg width="50" height="50" viewBox="0 0 50 50" fill="none" xmlns="http://www.w3.org/2000/svg">
<path d="M24.9998 12.5C19.4373 12.5 15.979 15.2708 14.5832 20.8333C16.6665 18.0625 19.104 17.0208 21.8748 17.7083C23.4582 18.1042 24.604 19.25 25.854 20.5208C27.8957 22.6042 30.2082 25 35.4165 25C40.979 25 44.4373 22.2292 45.8332 16.6667C43.7498 19.4375 41.3123 20.4792 38.5415 19.7917C36.9582 19.3958 35.8332 18.25 34.5623 16.9792C32.5207 14.8958 30.2082 12.5 24.9998 12.5ZM14.5832 25C9.02067 25 5.56234 27.7708 4.1665 33.3333C6.24984 30.5625 8.68734 29.5208 11.4582 30.2083C13.0415 30.6042 14.1665 31.75 15.4373 33.0208C17.479 35.1042 19.7915 37.5 24.9998 37.5C30.5623 37.5 34.0207 34.7292 35.4165 29.1667C33.3332 31.9375 30.8957 32.9792 28.1248 32.2917C26.5415 31.8958 25.4165 30.75 24.1457 29.4792C22.104 27.3958 19.7915 25 14.5832 25Z" fill="white"/>
</svg>
