<svg width="50" height="50" viewBox="0 0 50 50" fill="none" xmlns="http://www.w3.org/2000/svg">
<g clip-path="url(#clip0_257_390)">
<mask id="mask0_257_390" style="mask-type:luminance" maskUnits="userSpaceOnUse" x="0" y="0" width="50" height="50">
<path d="M0 0H50V50H0V0Z" fill="white"/>
</mask>
<g mask="url(#mask0_257_390)">
<path d="M0.475159 17.4375C0.475159 17.4375 -0.741508 16.5479 0.718909 15.3646L4.12516 12.2854C4.12516 12.2854 5.09807 11.25 6.12932 12.1521L37.5481 36.1979V47.7271C37.5481 47.7271 37.5335 49.5396 35.2356 49.3396L0.473075 17.4354L0.475159 17.4375Z" fill="white"/>
<path d="M8.57486 24.8688L0.474863 32.3104C0.474863 32.3104 -0.358471 32.9354 0.474863 34.0542L4.23528 37.5125C4.23528 37.5125 5.12903 38.4813 6.44778 37.3771L15.0332 30.7979L8.57486 24.8688ZM22.7915 24.9292L37.6457 13.4667L37.5478 1.99792C37.5478 1.99792 36.9124 -0.506249 34.7978 0.797918L15.0332 18.9792L22.7915 24.9292Z" fill="white"/>
<path d="M35.2333 49.3542C36.0958 50.2459 37.1416 49.9542 37.1416 49.9542L48.7166 44.1896C50.1979 43.1688 49.9895 41.9021 49.9895 41.9021V7.47505C49.9895 5.96255 48.4583 5.43963 48.4583 5.43963L38.4249 0.550051C36.2333 -0.818699 34.7979 0.797968 34.7979 0.797968C34.7979 0.797968 36.6437 -0.545782 37.5479 1.99797V47.5188C37.5479 47.8313 37.4812 48.1376 37.3499 48.4146C37.0854 48.9542 36.5124 49.4563 35.1374 49.248L35.2333 49.3542Z" fill="white"/>
</g>
</g>
<defs>
<clipPath id="clip0_257_390">
<rect width="50" height="50" fill="white"/>
</clipPath>
</defs>
</svg>
