<svg width="24" height="24" viewBox="0 0 24 24" fill="none" xmlns="http://www.w3.org/2000/svg">
  <g clip-path="url(#a)">
    <path fill="#fff" d="M23.04 0H.96A.959.959 0 0 0 0 .96v22.08c0 .53.429.96.96.96h22.08c.531 0 .96-.43.96-.96V.96a.959.959 0 0 0-.96-.96ZM7.119 20.45H3.558V8.997h3.561v11.455ZM5.34 7.43a2.064 2.064 0 1 1 0-4.128 2.064 2.064 0 0 1 0 4.128Zm15.111 13.02h-3.558v-5.57c0-1.33-.024-3.037-1.851-3.037-1.851 0-2.136 1.447-2.136 2.94v5.668H9.351V8.996h3.414v1.566h.048c.474-.9 1.635-1.85 3.369-1.85 3.606 0 4.269 2.373 4.269 5.457v6.282Z"/>
  </g>
  <defs>
    <clipPath id="a">
      <path fill="#fff" d="M0 0h24v24H0z"/>
    </clipPath>
  </defs>
</svg>